<svg fill="none" height="81" width="70" xmlns="http://www.w3.org/2000/svg"><path d="M45.81 27.09c6.16 0 11.27 1.587 15.33 4.76s6.743 7.49 8.05 12.95H58.83c-1.073-2.66-2.753-4.76-5.04-6.3-2.24-1.54-4.947-2.31-8.12-2.31-2.613 0-4.97.653-7.07 1.96s-3.733 3.173-4.9 5.6-1.75 5.273-1.75 8.54c0 3.22.583 6.043 1.75 8.47s2.8 4.293 4.9 5.6 4.457 1.96 7.07 1.96c3.173 0 5.88-.77 8.12-2.31 2.287-1.54 3.967-3.64 5.04-6.3h10.36c-1.307 5.46-3.99 9.777-8.05 12.95s-9.17 4.76-15.33 4.76c-4.713 0-8.89-1.05-12.53-3.15-3.593-2.147-6.393-5.133-8.4-8.96-1.96-3.827-2.94-8.167-2.94-13.02 0-4.9.98-9.263 2.94-13.09 2.007-3.827 4.807-6.79 8.4-8.89 3.593-2.147 7.77-3.22 12.53-3.22z" fill="#b0dae8"/><path d="M36.81 27.09c6.16 0 11.27 1.587 15.33 4.76s6.743 7.49 8.05 12.95H49.83c-1.073-2.66-2.753-4.76-5.04-6.3-2.24-1.54-4.947-2.31-8.12-2.31-2.613 0-4.97.653-7.07 1.96s-3.733 3.173-4.9 5.6-1.75 5.273-1.75 8.54c0 3.22.583 6.043 1.75 8.47s2.8 4.293 4.9 5.6 4.457 1.96 7.07 1.96c3.173 0 5.88-.77 8.12-2.31 2.287-1.54 3.967-3.64 5.04-6.3h10.36c-1.307 5.46-3.99 9.777-8.05 12.95s-9.17 4.76-15.33 4.76c-4.713 0-8.89-1.05-12.53-3.15-3.593-2.147-6.393-5.133-8.4-8.96-1.96-3.827-2.94-8.167-2.94-13.02 0-4.9.98-9.263 2.94-13.09 2.007-3.827 4.807-6.79 8.4-8.89 3.593-2.147 7.77-3.22 12.53-3.22z" fill="#6476c8"/><path d="M26.81 27.09c6.16 0 11.27 1.587 15.33 4.76s6.743 7.49 8.05 12.95H39.83c-1.073-2.66-2.753-4.76-5.04-6.3-2.24-1.54-4.947-2.31-8.12-2.31-2.613 0-4.97.653-7.07 1.96s-3.733 3.173-4.9 5.6-1.75 5.273-1.75 8.54c0 3.22.583 6.043 1.75 8.47s2.8 4.293 4.9 5.6 4.457 1.96 7.07 1.96c3.173 0 5.88-.77 8.12-2.31 2.287-1.54 3.967-3.64 5.04-6.3h10.36c-1.307 5.46-3.99 9.777-8.05 12.95s-9.17 4.76-15.33 4.76c-4.713 0-8.89-1.05-12.53-3.15-3.593-2.147-6.393-5.133-8.4-8.96-1.96-3.827-2.94-8.167-2.94-13.02 0-4.9.98-9.263 2.94-13.09 2.007-3.827 4.807-6.79 8.4-8.89 3.593-2.147 7.77-3.22 12.53-3.22z" fill="#d65775"/></svg>